<svg width="1920" height="1080" viewBox="0 0 1920 1080" fill="none" xmlns="http://www.w3.org/2000/svg">
  <defs>
    <linearGradient id="base" x1="960" y1="0" x2="960" y2="1080" gradientUnits="userSpaceOnUse">
      <stop stop-color="#07110F"/>
      <stop offset="1" stop-color="#020504"/>
    </linearGradient>
    <radialGradient id="greenGlow" cx="0" cy="0" r="1" gradientUnits="userSpaceOnUse" gradientTransform="translate(940 150) rotate(90) scale(520 900)">
      <stop stop-color="#27E46D" stop-opacity="0.36"/>
      <stop offset="1" stop-color="#27E46D" stop-opacity="0"/>
    </radialGradient>
    <radialGradient id="goldGlow" cx="0" cy="0" r="1" gradientUnits="userSpaceOnUse" gradientTransform="translate(1520 260) rotate(90) scale(220 300)">
      <stop stop-color="#F0C868" stop-opacity="0.18"/>
      <stop offset="1" stop-color="#F0C868" stop-opacity="0"/>
    </radialGradient>
    <filter id="blur" x="-20%" y="-20%" width="140%" height="140%">
      <feGaussianBlur stdDeviation="40"/>
    </filter>
  </defs>

  <rect width="1920" height="1080" fill="url(#base)"/>
  <rect width="1920" height="1080" fill="url(#greenGlow)"/>
  <rect width="1920" height="1080" fill="url(#goldGlow)"/>
  <path d="M0 812C249 760 370 692 594 729C797 762 868 899 1064 914C1243 928 1404 827 1600 764C1716 727 1805 723 1920 735V1080H0V812Z" fill="#040807"/>
  <g filter="url(#blur)" opacity="0.8">
    <circle cx="446" cy="250" r="86" fill="#0F3B26"/>
    <circle cx="1354" cy="158" r="92" fill="#1B452F"/>
    <circle cx="1120" cy="340" r="76" fill="#173124"/>
  </g>
  <path d="M466 171L604 195L732 158L824 194L982 146L1113 182L1246 149L1393 192L1555 159" stroke="#55FF89" stroke-opacity="0.22" stroke-width="3" stroke-linecap="round"/>
  <path d="M522 111L579 162L631 118L691 172L755 126L812 178" stroke="#8CFFB2" stroke-opacity="0.48" stroke-width="4" stroke-linecap="round"/>
  <path d="M1115 104L1184 166L1239 123L1317 177L1398 121L1462 176" stroke="#8CFFB2" stroke-opacity="0.46" stroke-width="4" stroke-linecap="round"/>
  <circle cx="318" cy="866" r="3" fill="#F0C868" fill-opacity="0.55"/>
  <circle cx="842" cy="812" r="2.5" fill="#F0C868" fill-opacity="0.55"/>
  <circle cx="1384" cy="876" r="3.5" fill="#F0C868" fill-opacity="0.52"/>
  <circle cx="1651" cy="814" r="2.5" fill="#F0C868" fill-opacity="0.46"/>
</svg>
