<svg width="1920" height="1080" viewBox="0 0 1920 1080" fill="none" xmlns="http://www.w3.org/2000/svg">
  <defs>
    <linearGradient id="base" x1="960" y1="0" x2="960" y2="1080" gradientUnits="userSpaceOnUse">
      <stop stop-color="#110C08"/>
      <stop offset="1" stop-color="#050504"/>
    </linearGradient>
    <radialGradient id="ember" cx="0" cy="0" r="1" gradientUnits="userSpaceOnUse" gradientTransform="translate(980 160) rotate(90) scale(500 860)">
      <stop stop-color="#F0C868" stop-opacity="0.22"/>
      <stop offset="1" stop-color="#F0C868" stop-opacity="0"/>
    </radialGradient>
    <radialGradient id="green" cx="0" cy="0" r="1" gradientUnits="userSpaceOnUse" gradientTransform="translate(1400 220) rotate(90) scale(240 360)">
      <stop stop-color="#31E970" stop-opacity="0.16"/>
      <stop offset="1" stop-color="#31E970" stop-opacity="0"/>
    </radialGradient>
  </defs>

  <rect width="1920" height="1080" fill="url(#base)"/>
  <rect width="1920" height="1080" fill="url(#ember)"/>
  <rect width="1920" height="1080" fill="url(#green)"/>
  <path d="M0 756C192 716 380 692 552 727C739 764 796 895 996 916C1179 935 1314 840 1513 772C1646 726 1774 714 1920 726V1080H0V756Z" fill="#040404"/>
  <path d="M260 192C416 150 592 144 747 187C898 229 1045 250 1180 212C1317 174 1458 155 1665 190" stroke="#F0C868" stroke-opacity="0.28" stroke-width="3" stroke-linecap="round"/>
  <path d="M478 118L540 172L606 126L663 179L738 132L799 185" stroke="#FFDD90" stroke-opacity="0.42" stroke-width="4" stroke-linecap="round"/>
  <path d="M1122 116L1189 174L1261 128L1325 181L1407 133L1468 183" stroke="#85FFAD" stroke-opacity="0.28" stroke-width="4" stroke-linecap="round"/>
  <circle cx="322" cy="854" r="3" fill="#F0C868" fill-opacity="0.55"/>
  <circle cx="904" cy="792" r="3" fill="#F0C868" fill-opacity="0.45"/>
  <circle cx="1451" cy="844" r="3.5" fill="#F0C868" fill-opacity="0.5"/>
</svg>
