<svg width="1920" height="1080" viewBox="0 0 1920 1080" fill="none" xmlns="http://www.w3.org/2000/svg">
  <defs>
    <linearGradient id="base" x1="960" y1="0" x2="960" y2="1080" gradientUnits="userSpaceOnUse">
      <stop stop-color="#071015"/>
      <stop offset="1" stop-color="#020406"/>
    </linearGradient>
    <radialGradient id="green" cx="0" cy="0" r="1" gradientUnits="userSpaceOnUse" gradientTransform="translate(920 140) rotate(90) scale(520 920)">
      <stop stop-color="#27E46D" stop-opacity="0.22"/>
      <stop offset="1" stop-color="#27E46D" stop-opacity="0"/>
    </radialGradient>
    <radialGradient id="blue" cx="0" cy="0" r="1" gradientUnits="userSpaceOnUse" gradientTransform="translate(1450 240) rotate(90) scale(240 420)">
      <stop stop-color="#5BC3FF" stop-opacity="0.18"/>
      <stop offset="1" stop-color="#5BC3FF" stop-opacity="0"/>
    </radialGradient>
  </defs>

  <rect width="1920" height="1080" fill="url(#base)"/>
  <rect width="1920" height="1080" fill="url(#green)"/>
  <rect width="1920" height="1080" fill="url(#blue)"/>
  <path d="M0 786C170 744 362 710 542 742C720 773 838 881 1029 904C1214 927 1372 845 1560 782C1688 739 1787 733 1920 747V1080H0V786Z" fill="#030607"/>
  <path d="M344 202C538 160 705 154 878 193C1037 229 1147 244 1294 214C1462 180 1598 171 1768 196" stroke="#63E99A" stroke-opacity="0.22" stroke-width="3" stroke-linecap="round"/>
  <path d="M496 122L557 173L613 131L671 179L739 131L801 183L861 138" stroke="#83F7B0" stroke-opacity="0.38" stroke-width="4" stroke-linecap="round"/>
  <path d="M1088 124L1142 170L1198 132L1254 178L1318 136L1380 184" stroke="#86CFFF" stroke-opacity="0.34" stroke-width="4" stroke-linecap="round"/>
  <circle cx="280" cy="846" r="3" fill="#83F7B0" fill-opacity="0.45"/>
  <circle cx="1180" cy="808" r="3" fill="#86CFFF" fill-opacity="0.4"/>
  <circle cx="1584" cy="858" r="3.5" fill="#F0C868" fill-opacity="0.32"/>
</svg>
